{"title":"Bernard Blier - C'est Pas Parce Qu'on A Rien À Dire Qu'il","uid":7844538,"size":734922752,"categoryP":"video","categoryS":"movies","magnet":"?xt=urn:btih:d3dfc9ae480cd7884370058c0f8eab9cd021f4f8&amp;dn=Bernard+Blier+-+C%27est+Pas+Parce+Qu%27on+A+Rien+%26Agrave%3B+Dire+Qu%27il&amp;tr=udp%3A%2F%2Ftracker.openbittorrent.com%3A80&amp;tr=udp%3A%2F%2Fopen.demonii.com%3A1337&amp;tr=udp%3A%2F%2Ftracker.coppersurfer.tk%3A6969&amp;tr=udp%3A%2F%2Fexodus.desync.com%3A6969","seeders":1,"leechers":0,"uploader":"Bonie75","files":-1,"time":1353435252,"description":"FrancaisBernard Blier - C'est Pas Parce Qu'on A Rien Ã€ Dire Qu'il Faut Fermer Sa Gueule - Divx Fr.avi\nFormat                                   : AVI\nFormat/Info                              : Audio Video Interleave\nFile size                                : 701 MiB\nDuration                                 : 1h 29mn\nOverall bit rate mode                    : Variable\nOverall bit rate                         : 1 099 Kbps\nWriting application                      : VirtualDubMod 1.5.4.1 (build 2178/release)\nWriting library                          : VirtualDubMod build 2178/release\n\nVideo\nID                                       : 0\nFormat                                   : MPEG-4 Visual\nFormat settings, BVOP                    : 1\nFormat settings, QPel                    : No\nFormat settings, GMC                     : No warppoints\nFormat settings, Matrix                  : Default (H.263)\nMuxing mode                              : Packed bitstream\nCodec ID                                 : DX50\nCodec ID/Hint                            : DivX 5\nDuration                                 : 1h 29mn\nBit rate                                 : 960 Kbps\nWidth                                    : 508 pixels\nHeight                                   : 308 pixels\nDisplay aspect ratio                     : 1.649\nFrame rate                               : 25.000 fps\nColor space                              : YUV\nChroma subsampling                       : 4:2:0\nBit depth                                : 8 bits\nScan type                                : Progressive\nCompression mode                         : Lossy\nBits/(Pixel*Frame)                       : 0.245\nStream size                              : 612 MiB (87%)\nWriting library                          : DivX 5.0.5 (UTC 2003-04-24)\n\nAudio\nID                                       : 1\nFormat                                   : MPEG Audio\nFormat version                           : Version 1\nFormat profile                           : Layer 3\nMode                                     : Joint stereo\nMode extension                           : MS Stereo\nCodec ID                                 : 55\nCodec ID/Hint                            : MP3\nDuration                                 : 1h 29mn\nBit rate mode                            : Variable\nBit rate                                 : 128 Kbps\nChannel(s)                               : 2 channels\nSampling rate                            : 48.0 KHz\nCompression mode                         : Lossy\nStream size                              : 80.6 MiB (12%)\nAlignment                                : Aligned on interleaves\nInterleave, duration                     : 24 ms (0.60 video frame)\nInterleave, preload duration             : 504 ms\nWriting library                          : LAME3.90.\nEncoding settings                        : -m j -V 4 -q 2 -lowpass 17.6 --abr 128\n","torrent":{"xt":"urn:btih:d3dfc9ae480cd7884370058c0f8eab9cd021f4f8","amp;dn":"Bernard+Blier+-+C%27est+Pas+Parce+Qu%27on+A+Rien+%26Agrave%3B+Dire+Qu%27il","amp;tr":["udp%3A%2F%2Ftracker.openbittorrent.com%3A80","udp%3A%2F%2Fopen.demonii.com%3A1337","udp%3A%2F%2Ftracker.coppersurfer.tk%3A6969","udp%3A%2F%2Fexodus.desync.com%3A6969"],"infoHash":"d3dfc9ae480cd7884370058c0f8eab9cd021f4f8","infoHashBuffer":{"type":"Buffer","data":[211,223,201,174,72,12,215,136,67,112,5,140,15,142,171,156,208,33,244,248]},"announce":[],"urlList":[]}}